<svg xmlns="http://www.w3.org/2000/svg" version="1.1" xmlns:xlink="http://www.w3.org/1999/xlink" width="512" height="512" x="0" y="0" viewBox="0 0 24 24" style="enable-background:new 0 0 512 512" xml:space="preserve" class=""><g><path d="M8.53 10.53 7.061 12l1.469 1.47a.75.75 0 1 1-1.06 1.06l-2-2a.749.749 0 0 1 0-1.06l2-2a.75.75 0 1 1 1.06 1.06zm10 .94-2-2a.75.75 0 1 0-1.06 1.06L16.939 12l-1.469 1.47a.75.75 0 1 0 1.06 1.06l2-2a.749.749 0 0 0 0-1.06zm4.22.53A10.75 10.75 0 1 1 12 1.25 10.762 10.762 0 0 1 22.75 12zm-1.5 0A9.25 9.25 0 1 0 12 21.25 9.26 9.26 0 0 0 21.25 12zM13.3 8.978a.749.749 0 0 0-.984.393l-2 4.666a.75.75 0 1 0 1.378.592l2-4.666a.749.749 0 0 0-.394-.985z" data-name="1" fill="#000000" opacity="1" data-original="#000000" class=""></path></g></svg>